<?xml version="1.0" encoding="iso-8859-1"?>
<!-- Generator: Adobe Illustrator 19.0.0, SVG Export Plug-In . SVG Version: 6.00 Build 0)  -->
<svg version="1.1" id="Layer_1" xmlns="http://www.w3.org/2000/svg" xmlns:xlink="http://www.w3.org/1999/xlink" x="0px" y="0px"
	 viewBox="0 0 487.979 487.979" style="enable-background:new 0 0 487.979 487.979;" xml:space="preserve">
<g>
	<g>
		<path d="M485.4,303.649L485.4,303.649c-2.6-2.8-6.6-3.9-10.3-2.8c-15.7,4.8-32.7,7.3-50.5,7.3c-72.5,0-135.1-42.8-163.6-104.3
			h114.7c5.5,0,10-4.5,10-10s-4.5-10-10-10H253.1c-5.6-17.3-8.6-35.7-8.6-54.8c0-23,4.4-45.4,13-66.5c1.5-3.6,0.7-7.6-1.8-10.5
			c-2.6-2.9-6.6-4-10.3-2.9c-41.8,12.3-77.7,37.2-103.8,72c-26.2,34.7-40,75.9-40,119c0,5.5,0.2,10.9,0.7,16.2H10
			c-5.5,0-10,4.5-10,10s4.5,10,10,10h94.8c3.3,18.1,9,35.5,17.1,51.8h-31c-5.5,0-10,4.5-10,10s4.5,10,10,10h42.3
			c7.6,11.8,16.6,22.8,26.8,33c37.7,37.5,88,58.1,141.6,58.1c39.9,0,78.5-11.8,111.8-34.2s58.9-53.9,73.8-90.9
			C488.7,310.649,488,306.549,485.4,303.649z M301.6,419.249c-58.5,0-110.6-27.9-143.6-71.1h136c5.5,0,10-4.5,10-10s-4.5-10-10-10
			H144.8c-9.1-15.9-15.8-33.3-19.6-51.8H213c5.5,0,10-4.5,10-10s-4.5-10-10-10h-90.8c-0.5-5.4-0.7-10.8-0.7-16.2
			c0-71.9,44.5-137.1,110.4-165c-5,17.4-7.5,35.4-7.5,53.8c0,18.8,2.6,37.2,7.6,54.8h-59.4c-5.5,0-10,4.5-10,10s4.5,10,10,10h66.3
			c9.9,24.5,24.8,47,44,66.2c37.7,37.5,88,58.1,141.6,58.1c12.2,0,24.1-1,35.5-3.1C428.8,382.149,367.5,419.249,301.6,419.249z"/>
	</g>
</g>
<g>
</g>
<g>
</g>
<g>
</g>
<g>
</g>
<g>
</g>
<g>
</g>
<g>
</g>
<g>
</g>
<g>
</g>
<g>
</g>
<g>
</g>
<g>
</g>
<g>
</g>
<g>
</g>
<g>
</g>
</svg>
