<?xml version="1.0" encoding="iso-8859-1"?>
<!-- Generator: Adobe Illustrator 18.1.1, SVG Export Plug-In . SVG Version: 6.00 Build 0)  -->
<svg version="1.1" id="Capa_1" xmlns="http://www.w3.org/2000/svg" xmlns:xlink="http://www.w3.org/1999/xlink" x="0px" y="0px"
	 viewBox="0 0 273.485 273.485" style="enable-background:new 0 0 273.485 273.485;" xml:space="preserve">
<g>
	<g>
		<path style="fill:#010002;" d="M271.424,104.894c-1.661-1.682-4.026-2.441-6.363-2.022c-4.073,0.734-7.87,1.088-11.617,1.088
			c-36.229,0-65.701-29.468-65.701-65.686c0-4.137,0.419-8.382,1.242-12.619c0.451-2.316-0.268-4.706-1.925-6.388
			c-1.657-1.682-4.041-2.444-6.356-2.022c-30.299,5.415-54.502,27.772-62.748,56.879c-7.004-2.505-14.498-3.844-22.243-3.844
			c-11.506,0-22.876,3.063-32.875,8.865c-6.707,3.887-12.601,8.865-17.565,14.82c-7.43,0.451-14.702,2.645-21.201,6.41
			C9.223,108.981,0,124.95,0,142.05s9.226,33.065,24.079,41.665c2.824,1.632,5.866,2.978,9.083,4.023
			c3.296,10.275,9.122,19.623,17.01,27.231c2.845,2.745,7.38,2.659,10.121-0.183c2.745-2.845,2.663-7.38-0.183-10.121
			c-6.986-6.739-11.907-15.203-14.222-24.483c-0.651-2.602-2.702-4.62-5.315-5.232c-3.396-0.798-6.535-2.015-9.326-3.629
			c-10.443-6.045-16.932-17.264-16.932-29.275s6.488-23.234,16.932-29.289c5.157-2.988,11.009-4.567,16.634-4.574
			c0.129,0.011,0.53,0.036,0.659,0.043c2.333,0.054,4.57-0.995,5.97-2.87c4.23-5.662,9.445-10.314,15.504-13.825
			c7.823-4.538,16.71-6.936,25.696-6.936c8.303,0,16.237,1.968,23.316,5.579c0.204,0.136,0.361,0.319,0.58,0.437
			c7.938,4.216,14.57,10.325,19.322,17.705c0.308,0.48,0.63,0.948,0.923,1.442c1.958,3.282,6.145,4.441,9.52,2.648
			c1.324-0.709,2.72-1.228,4.141-1.657c2.326-0.701,4.738-1.074,7.158-1.034c3.894,0.068,7.784,1.095,11.234,3.085
			c7.179,4.169,11.638,11.878,11.638,20.12c0,2.341-0.39,4.645-1.081,6.861c-0.544,1.75-1.263,3.45-2.212,5.035
			c-1.149,1.922-1.313,4.227-0.54,6.242c0.258,0.673,0.619,1.313,1.084,1.897c0.007,0.011,0.014,0.021,0.021,0.029
			c0.916,1.156,1.75,2.376,2.502,3.65c0.021,0.032,0.039,0.061,0.057,0.089c2.294,3.912,3.794,8.324,4.384,12.984
			c0.047,0.351,0.132,0.68,0.222,1.013c0.1,1.059,0.165,2.129,0.165,3.207c0,12.018-6.488,23.237-16.935,29.289
			c-5.161,2.992-11.009,4.57-16.91,4.57c-1.406,0-2.859-0.104-4.438-0.326c-3.883-0.544-7.53,2.194-8.07,6.113
			c-0.537,3.915,2.194,7.53,6.113,8.07c2.237,0.308,4.327,0.458,6.395,0.458c8.417,0,16.749-2.248,24.082-6.499
			c14.369-8.317,23.445-23.542,24.021-40.019c34.926-3.321,64.151-29.325,70.954-64.287
			C273.8,108.967,273.081,106.576,271.424,104.894z M200.77,161.365c-1.285-4.763-3.293-9.312-6.027-13.51
			c0.723-1.664,1.274-3.389,1.75-5.139c0.866-3.189,1.36-6.478,1.36-9.802c0-13.335-7.193-25.793-18.789-32.521
			c-7.848-4.531-17.225-6.005-26.025-4.298c-0.186,0.036-0.376,0.05-0.565,0.086c-0.168,0.036-0.333,0.097-0.505,0.136
			c-1.106,0.247-2.201,0.523-3.282,0.873c-4.896-6.717-10.905-12.311-17.68-16.649c5.261-21.888,21.441-39.493,42.549-46.708
			c-0.086,1.489-0.129,2.97-0.129,4.441c0,44.113,35.896,80.002,80.016,80.002c1.063,0,2.129-0.021,3.199-0.068
			C248.061,142.032,226.244,159.049,200.77,161.365z"/>
		<path style="fill:#010002;" d="M130.811,204.78c-1.993-3.407-6.374-4.556-9.792-2.566l-12.633,7.383v-14.641
			c0-3.951-3.203-7.158-7.158-7.158c-3.951,0-7.158,3.207-7.158,7.158v14.645l-12.641-7.387c-3.418-2.001-7.795-0.845-9.792,2.566
			c-1.997,3.414-0.845,7.798,2.566,9.792l12.837,7.505l-12.834,7.505c-3.414,1.997-4.563,6.378-2.566,9.792
			c1.331,2.276,3.726,3.543,6.188,3.543c1.228,0,2.469-0.315,3.604-0.977l12.637-7.387v14.645c0,3.951,3.203,7.158,7.158,7.158
			c3.951,0,7.158-3.207,7.158-7.158v-14.641l12.633,7.383c1.135,0.666,2.38,0.977,3.604,0.977c2.462,0,4.853-1.267,6.188-3.543
			c1.997-3.414,0.845-7.798-2.566-9.792l-12.834-7.505l12.837-7.505C131.655,212.575,132.804,208.194,130.811,204.78z"/>
	</g>
</g>
<g>
</g>
<g>
</g>
<g>
</g>
<g>
</g>
<g>
</g>
<g>
</g>
<g>
</g>
<g>
</g>
<g>
</g>
<g>
</g>
<g>
</g>
<g>
</g>
<g>
</g>
<g>
</g>
<g>
</g>
</svg>
